<?xml version="1.0" standalone="no"?>
<!DOCTYPE svg PUBLIC "-//W3C//DTD SVG 20010904//EN"
 "http://www.w3.org/TR/2001/REC-SVG-20010904/DTD/svg10.dtd">
<svg version="1.0" xmlns="http://www.w3.org/2000/svg"
 width="368.000000pt" height="368.000000pt" viewBox="0 0 368.000000 368.000000"
 preserveAspectRatio="xMidYMid meet">
<metadata>
Created by potrace 1.11, written by Peter Selinger 2001-2013
</metadata>
<g transform="translate(0.000000,368.000000) scale(0.100000,-0.100000)"
fill="#000000" stroke="none">
<path d="M230 3668 c-90 -23 -156 -77 -200 -163 l-25 -50 0 -1615 1 -1615 22
-47 c29 -62 91 -124 150 -151 l47 -21 1615 1 1615 0 47 21 c59 26 121 88 148
146 20 45 20 53 20 1666 0 1620 0 1621 -21 1667 -26 57 -88 119 -148 146 l-46
21 -1595 1 c-877 1 -1611 -3 -1630 -7z"/>
</g>
</svg>
