<?xml version="1.0" encoding="UTF-8"?>
<svg width="17px" height="20px" viewBox="0 0 17 20" version="1.1" xmlns="http://www.w3.org/2000/svg" xmlns:xlink="http://www.w3.org/1999/xlink">
    <!-- Generator: Sketch 51.2 (57519) - http://www.bohemiancoding.com/sketch -->
    <title>test</title>
    <desc>Created with Sketch.</desc>
    <defs></defs>
    <g id="test" stroke="none" stroke-width="1" fill="none" fill-rule="evenodd">
        <path d="M13.2253646,-3.16720239 C12.8389626,-3.58855888 12.1882164,-3.61307585 11.7717571,-3.22207645 L3.82885885,4.23709581 C3.61914347,4.43404108 3.5,4.71049304 3.5,5.00001301 C3.5,5.28953297 3.61914347,5.56598493 3.82885885,5.76293021 L11.7717571,13.2221025 C11.9698153,13.4080614 12.220788,13.5 12.4711893,13.5 C12.7473622,13.5 13.022735,13.3881702 13.2253646,13.1672284 C13.6117666,12.7458719 13.5874808,12.0873253 13.1711358,11.6963259 L6.04058458,5.00001301 L13.1711358,-1.69624205 C13.5874808,-2.08729928 13.6117666,-2.74584589 13.2253646,-3.16720239 Z" id="Shape" fill="#001F5E" fill-rule="nonzero" transform="translate(8.500000, 5.000000) rotate(-90.000000) translate(-8.500000, -5.000000) "></path>
        <path d="M13.2253646,6.83279761 C12.8389626,6.41144112 12.1882164,6.38692415 11.7717571,6.77792355 L3.82885885,14.2370958 C3.61914347,14.4340411 3.5,14.710493 3.5,15.000013 C3.5,15.289533 3.61914347,15.5659849 3.82885885,15.7629302 L11.7717571,23.2221025 C11.9698153,23.4080614 12.220788,23.5 12.4711893,23.5 C12.7473622,23.5 13.022735,23.3881702 13.2253646,23.1672284 C13.6117666,22.7458719 13.5874808,22.0873253 13.1711358,21.6963259 L6.04058458,15.000013 L13.1711358,8.30375795 C13.5874808,7.91270072 13.6117666,7.25415411 13.2253646,6.83279761 Z" id="Shape" fill="#001F5E" fill-rule="nonzero" transform="translate(8.500000, 15.000000) rotate(90.000000) translate(-8.500000, -15.000000) "></path>
    </g>
</svg>
