<?xml version="1.0" encoding="UTF-8"?>
<svg width="224px" height="47px" viewBox="0 0 224 47" version="1.1" xmlns="http://www.w3.org/2000/svg" xmlns:xlink="http://www.w3.org/1999/xlink">
    <!-- Generator: Sketch 54.1 (76490) - https://sketchapp.com -->
    <title>Long-positive-fullcolour</title>
    <desc>Created with Sketch.</desc>
    <defs>
        <polygon id="path-1" points="26.6325045 0.766523965 0.671377171 12.9516184 0.0978216028 18.3415505 27.4639881 5.42661522 28.0358242 0.0806263993"></polygon>
        <linearGradient x1="46.2658397%" y1="45.0447916%" x2="127.745158%" y2="20.096389%" id="linearGradient-3">
            <stop stop-color="#3943FF" offset="0%"></stop>
            <stop stop-color="#00215C" offset="100%"></stop>
        </linearGradient>
    </defs>
    <g id="Page-1" stroke="none" stroke-width="1" fill="none" fill-rule="evenodd">
        <g id="Upgrade-homepage-Copy" transform="translate(-132.000000, -20.000000)">
            <g id="Menu---light" transform="translate(131.000000, 20.000000)">
                <g id="Long-positive-fullcolour" transform="translate(1.000000, 0.000000)">
                    <g id="Group-75" transform="translate(0.000000, 0.037452)">
                        <path d="M0.499788147,17.4603728 L2.37196371,0.162953213 L3.61403057,0.163335329 C6.95887981,0.163335329 6.36468999,3.22561002 6.36468999,3.22561002 L5.06606999,15.3121187 L13.1969176,15.3121187 L12.7800294,19.5969724 L4.64631597,19.5969724 L4.34711942,21.8184016 C4.27604593,22.4859576 4.20057809,23.8946269 4.39564812,24.4674182 C5.07676925,26.4668383 7.09911623,27.8940402 9.93231262,27.9377924 L11.9500742,27.9389388 L11.4760598,32.1408733 L9.58535161,32.1408733 C9.58535161,32.1408733 -1.04644277,31.9924215 0.123977418,20.9916944 L0.499788147,17.4603728 Z" id="Fill-44" fill="#FFFFFF"></path>
                        <polygon id="Fill-46" fill="#FFFFFF" points="48.3427483 15.3133223 44.0286626 15.312176 42.1925971 32.1485731 46.5124143 32.1409306"></polygon>
                        <path d="M55.6669878,0.163411752 L54.4249209,0.163029636 L50.9898927,32.1482101 L55.3089457,32.1482101 L58.4176474,3.2254954 C58.4176474,3.2254954 59.0118371,0.163411752 55.6669878,0.163411752" id="Fill-48" fill="#FFFFFF"></path>
                        <path d="M62.7824014,0.163029636 L59.3473728,32.1482101 L63.6664261,32.1482101 L66.7751278,3.2254954 C66.7751278,3.2254954 67.3693175,0.163411752 64.0244682,0.163411752 L62.7824014,0.163029636 Z" id="Fill-50" fill="#FFFFFF"></path>
                        <g id="Group-43" transform="translate(56.362056, 28.276557)">
                            <g id="Fill-41-Clipped">
                                <mask id="mask-2" fill="white">
                                    <use xlink:href="#path-1"></use>
                                </mask>
                                <g id="path-1"></g>
                                <polygon id="Fill-41" fill="url(#linearGradient-3)" mask="url(#mask-2)" points="26.6325045 0.766523965 0.671377171 12.9516184 0.0978216028 18.3415505 27.4639881 5.42661522 28.0358242 0.0806263993"></polygon>
                            </g>
                        </g>
                        <polygon id="Fill-63" fill="#39A6FF" points="68.9461559 24.9293769 83.8272673 33.7067642 84.3992943 28.3290597 69.5336586 19.4649323"></polygon>
                        <polygon id="Fill-65" fill="#39A6FF" points="49.1383321 7.91393961 45.0412882 5.48463948 44.4600904 10.9471735 48.5569433 13.3783843"></polygon>
                        <path d="M26.6406245,30.5158501 C24.3937846,32.9438129 21.2138182,32.5689575 21.2138182,32.5689575 C21.2138182,32.5689575 14.5309979,31.9600562 15.2262573,24.8229004 L16.3038234,15.3120422 L20.6461855,15.3120422 L19.6007171,24.4465165 C19.5619323,24.8846121 19.5351843,25.6754004 19.633579,26.0603819 C19.7401893,26.4774611 19.9371699,26.8156335 20.145805,27.052163 C20.3519564,27.2858267 20.6133235,27.4990473 20.9404145,27.6553326 C21.2612006,27.8083699 21.553328,27.8767686 21.9071671,27.8855572 C22.2220303,27.8933906 22.5731946,27.8368375 22.9216841,27.6857108 C23.2277587,27.5533077 23.4476662,27.3926281 23.6702486,27.1729116 C23.6702486,27.1729116 24.1058604,26.7693975 24.3832764,26.1041341 C24.543956,25.7183884 24.6866762,24.9247342 24.7254609,24.4864476 L25.7718846,15.3401277 L30.2550564,15.3401277 L29.2556329,24.4765126 C29.2168481,24.9147992 29.2157018,25.7109372 29.3211655,26.0940081 C29.4262474,26.4776522 29.5875003,26.790987 29.8353022,27.0682119 C30.0806206,27.342762 30.2806581,27.4866285 30.5804278,27.6429138 C30.8763764,27.7974796 31.1855079,27.8756222 31.5393469,27.8905247 C32.3761801,27.9256794 33.0767892,27.5061164 33.4445756,27.0657281 C34.0295945,26.3656923 34.2741487,25.7405511 34.4338729,24.4765126 L35.4331053,15.3401277 L39.806992,15.3401277 L38.8746298,24.4212969 C38.8746298,24.4212969 38.2450942,32.6310513 31.4596759,32.5118313 C31.4596759,32.5118313 28.5326701,32.6062138 26.6406245,30.5158501" id="Fill-71" fill="#FFFFFF"></path>
                    </g>
                    <path d="M98.546728,32.2024964 L98.546728,31.4747873 C98.0249742,32.0514625 97.2698044,32.3672608 96.3773309,32.3672608 C95.278902,32.3672608 94.0706302,31.6258213 94.0706302,30.170403 C94.0706302,28.6600632 95.2651716,28.0010059 96.3773309,28.0010059 C97.2698044,28.0010059 98.0387046,28.2893435 98.546728,28.879749 L98.546728,27.7813201 C98.546728,26.9574984 97.8739403,26.4632054 96.9265453,26.4632054 C96.1713755,26.4632054 95.5260485,26.751543 94.9356429,27.3419486 L94.4001589,26.4906662 C95.1415984,25.762957 96.0478022,25.4059676 97.1187704,25.4059676 C98.5604583,25.4059676 99.7824605,26.0375642 99.7824605,27.7263987 L99.7824605,32.2024964 L98.546728,32.2024964 Z M98.546728,30.7470781 L98.546728,29.6211885 C98.1760082,29.1268955 97.5306812,28.8660187 96.8441632,28.8660187 C95.9516897,28.8660187 95.3200931,29.4015027 95.3200931,30.1841333 C95.3200931,30.9667639 95.9516897,31.502248 96.8441632,31.502248 C97.5306812,31.502248 98.1760082,31.2413712 98.546728,30.7470781 Z M113.221738,32.2024964 L113.221738,24.925405 L110.25598,32.2024964 L109.679305,32.2024964 L106.713547,24.925405 L106.713547,32.2024964 L105.340511,32.2024964 L105.340511,23.0443455 L107.303952,23.0443455 L109.967642,29.6211885 L112.631333,23.0443455 L114.594774,23.0443455 L114.594774,32.2024964 L113.221738,32.2024964 Z M123.168012,32.2024964 L122.426572,30.3077066 L117.936744,30.3077066 L117.195305,32.2024964 L115.684965,32.2024964 L119.323511,23.0443455 L121.039806,23.0443455 L124.678351,32.2024964 L123.168012,32.2024964 Z M120.174793,24.2388869 L118.334925,29.0857044 L122.028392,29.0857044 L120.174793,24.2388869 Z M125.782273,32.2024964 L125.782273,23.0443455 L131.933474,23.0443455 L131.933474,24.2526173 L127.155309,24.2526173 L127.155309,26.9300377 L131.837362,26.9300377 L131.837362,28.1383095 L127.155309,28.1383095 L127.155309,30.9942247 L131.933474,30.9942247 L131.933474,32.2024964 L125.782273,32.2024964 Z M138.92772,32.2024964 L136.744593,28.6737936 L135.028298,28.6737936 L135.028298,32.2024964 L133.655262,32.2024964 L133.655262,23.0443455 L137.513493,23.0443455 C139.257249,23.0443455 140.45179,24.1702351 140.45179,25.8590695 C140.45179,27.5067129 139.339631,28.385456 138.172551,28.53649 L140.520442,32.2024964 L138.92772,32.2024964 Z M139.037563,25.8590695 C139.037563,24.8979443 138.323584,24.2526173 137.334998,24.2526173 L135.028298,24.2526173 L135.028298,27.4655218 L137.334998,27.4655218 C138.323584,27.4655218 139.037563,26.8201948 139.037563,25.8590695 Z M141.583172,30.9118425 L142.365803,29.8546047 C142.983669,30.5411227 143.972255,31.1452586 145.249179,31.1452586 C146.732058,31.1452586 147.253811,30.3900888 147.253811,29.7310314 C147.253811,28.7699061 146.210304,28.4952989 145.043223,28.193231 C143.574075,27.8087808 141.87151,27.3831396 141.87151,25.5158105 C141.87151,24.0054708 143.203355,22.9070419 145.111875,22.9070419 C146.526102,22.9070419 147.638262,23.3601438 148.448353,24.1839655 L147.651992,25.2000122 C146.951744,24.4585727 145.990618,24.129044 145.002032,24.129044 C143.985985,24.129044 143.285737,24.6507978 143.285737,25.419698 C143.285737,26.2435197 144.274323,26.5043965 145.413943,26.7927341 C146.910552,27.1909146 148.654308,27.6577469 148.654308,29.6074582 C148.654308,31.0354157 147.665722,32.3672608 145.194257,32.3672608 C143.560344,32.3672608 142.365803,31.7768552 141.583172,30.9118425 Z M155.758397,32.2024964 L152.490571,28.2206917 L151.625558,29.1955473 L151.625558,32.2024964 L150.252522,32.2024964 L150.252522,23.0443455 L151.625558,23.0443455 L151.625558,27.5890951 L155.456329,23.0443455 L157.158894,23.0443455 L153.383045,27.3831396 L157.460962,32.2024964 L155.758397,32.2024964 Z M162.771866,24.4585727 C162.346225,24.4585727 161.975505,24.1153137 161.975505,23.6759421 C161.975505,23.2365705 162.346225,22.8795812 162.771866,22.8795812 C163.211237,22.8795812 163.568227,23.2365705 163.568227,23.6759421 C163.568227,24.1153137 163.211237,24.4585727 162.771866,24.4585727 Z M162.16773,32.2024964 L162.16773,25.570732 L163.403462,25.570732 L163.403462,32.2024964 L162.16773,32.2024964 Z M169.848494,32.2024964 L169.848494,27.9598148 C169.848494,26.8613859 169.285549,26.5043965 168.434267,26.5043965 C167.665366,26.5043965 166.965118,26.9712288 166.608129,27.4655218 L166.608129,32.2024964 L165.372396,32.2024964 L165.372396,25.570732 L166.608129,25.570732 L166.608129,26.5043965 C167.0475,25.9689124 167.926243,25.4059676 168.95602,25.4059676 C170.356517,25.4059676 171.084226,26.1474071 171.084226,27.547904 L171.084226,32.2024964 L169.848494,32.2024964 Z M177.529258,32.2024964 L177.529258,27.9598148 C177.529258,26.8613859 176.966313,26.5043965 176.115031,26.5043965 C175.346131,26.5043965 174.645882,26.9712288 174.288893,27.4655218 L174.288893,32.2024964 L173.05316,32.2024964 L173.05316,25.570732 L174.288893,25.570732 L174.288893,26.5043965 C174.728264,25.9689124 175.607007,25.4059676 176.636785,25.4059676 C178.037281,25.4059676 178.764991,26.1474071 178.764991,27.547904 L178.764991,32.2024964 L177.529258,32.2024964 Z M183.672222,32.3672608 C181.612667,32.3672608 180.322013,30.8019996 180.322013,28.879749 C180.322013,26.9712288 181.612667,25.4059676 183.672222,25.4059676 C185.745506,25.4059676 187.02243,26.9712288 187.02243,28.879749 C187.02243,30.8019996 185.745506,32.3672608 183.672222,32.3672608 Z M183.672222,31.2688319 C185.004067,31.2688319 185.731776,30.1429423 185.731776,28.879749 C185.731776,27.6302861 185.004067,26.5043965 183.672222,26.5043965 C182.354107,26.5043965 181.612667,27.6302861 181.612667,28.879749 C181.612667,30.1429423 182.354107,31.2688319 183.672222,31.2688319 Z M190.350669,32.2024964 L187.618327,25.570732 L188.936442,25.570732 L191.009727,30.7745389 L193.083011,25.570732 L194.414856,25.570732 L191.682514,32.2024964 L190.350669,32.2024964 Z M199.514312,32.2024964 L199.514312,31.4747873 C198.992559,32.0514625 198.237389,32.3672608 197.344915,32.3672608 C196.246486,32.3672608 195.038215,31.6258213 195.038215,30.170403 C195.038215,28.6600632 196.232756,28.0010059 197.344915,28.0010059 C198.237389,28.0010059 199.006289,28.2893435 199.514312,28.879749 L199.514312,27.7813201 C199.514312,26.9574984 198.841525,26.4632054 197.89413,26.4632054 C197.13896,26.4632054 196.493633,26.751543 195.903227,27.3419486 L195.367743,26.4906662 C196.109183,25.762957 197.015387,25.4059676 198.086355,25.4059676 C199.528043,25.4059676 200.750045,26.0375642 200.750045,27.7263987 L200.750045,32.2024964 L199.514312,32.2024964 Z M199.514312,30.7470781 L199.514312,29.6211885 C199.143593,29.1268955 198.498266,28.8660187 197.811748,28.8660187 C196.919274,28.8660187 196.287678,29.4015027 196.287678,30.1841333 C196.287678,30.9667639 196.919274,31.502248 197.811748,31.502248 C198.498266,31.502248 199.143593,31.2413712 199.514312,30.7470781 Z M204.558847,32.3672608 C203.51534,32.3672608 202.979856,31.7768552 202.979856,30.7333478 L202.979856,26.6554305 L201.881427,26.6554305 L201.881427,25.570732 L202.979856,25.570732 L202.979856,23.7583243 L204.215588,23.7583243 L204.215588,25.570732 L205.561164,25.570732 L205.561164,26.6554305 L204.215588,26.6554305 L204.215588,30.4587406 C204.215588,30.9255728 204.435274,31.2688319 204.860915,31.2688319 C205.149253,31.2688319 205.41013,31.1452586 205.533703,31.007955 L205.849501,31.9416196 C205.588624,32.1887661 205.204174,32.3672608 204.558847,32.3672608 Z M207.543828,24.4585727 C207.118187,24.4585727 206.747467,24.1153137 206.747467,23.6759421 C206.747467,23.2365705 207.118187,22.8795812 207.543828,22.8795812 C207.983199,22.8795812 208.340189,23.2365705 208.340189,23.6759421 C208.340189,24.1153137 207.983199,24.4585727 207.543828,24.4585727 Z M206.939692,32.2024964 L206.939692,25.570732 L208.175424,25.570732 L208.175424,32.2024964 L206.939692,32.2024964 Z M213.082655,32.3672608 C211.023101,32.3672608 209.732447,30.8019996 209.732447,28.879749 C209.732447,26.9712288 211.023101,25.4059676 213.082655,25.4059676 C215.15594,25.4059676 216.432864,26.9712288 216.432864,28.879749 C216.432864,30.8019996 215.15594,32.3672608 213.082655,32.3672608 Z M213.082655,31.2688319 C214.4145,31.2688319 215.14221,30.1429423 215.14221,28.879749 C215.14221,27.6302861 214.4145,26.5043965 213.082655,26.5043965 C211.764541,26.5043965 211.023101,27.6302861 211.023101,28.879749 C211.023101,30.1429423 211.764541,31.2688319 213.082655,31.2688319 Z M222.479715,32.2024964 L222.479715,27.9598148 C222.479715,26.8613859 221.91677,26.5043965 221.065487,26.5043965 C220.296587,26.5043965 219.596339,26.9712288 219.239349,27.4655218 L219.239349,32.2024964 L218.003617,32.2024964 L218.003617,25.570732 L219.239349,25.570732 L219.239349,26.5043965 C219.678721,25.9689124 220.557464,25.4059676 221.587241,25.4059676 C222.987738,25.4059676 223.715447,26.1474071 223.715447,27.547904 L223.715447,32.2024964 L222.479715,32.2024964 Z" id="a-MAERSK-innovation" fill="#FFFFFF" fill-rule="nonzero"></path>
                </g>
            </g>
        </g>
    </g>
</svg>
